<?xml version="1.0" encoding="utf-8" standalone="no"?>
<!DOCTYPE svg PUBLIC "-//W3C//DTD SVG 1.1//EN"
  "http://www.w3.org/Graphics/SVG/1.1/DTD/svg11.dtd">
<svg xmlns:xlink="http://www.w3.org/1999/xlink" width="864pt" height="547.2pt" viewBox="0 0 864 547.2" xmlns="http://www.w3.org/2000/svg" version="1.1">
 <metadata>
  <rdf:RDF xmlns:dc="http://purl.org/dc/elements/1.1/" xmlns:cc="http://creativecommons.org/ns#" xmlns:rdf="http://www.w3.org/1999/02/22-rdf-syntax-ns#">
   <cc:Work>
    <dc:type rdf:resource="http://purl.org/dc/dcmitype/StillImage"/>
    <dc:date>2026-10-08T09:13:43.574640</dc:date>
    <dc:format>image/svg+xml</dc:format>
    <dc:creator>
     <cc:Agent>
      <dc:title>Matplotlib v3.10.8, https://matplotlib.org/</dc:title>
     </cc:Agent>
    </dc:creator>
   </cc:Work>
  </rdf:RDF>
 </metadata>
 <defs>
  <style type="text/css">*{stroke-linejoin: round; stroke-linecap: butt}</style>
 </defs>
 <g id="figure_1">
  <g id="patch_1">
   <path d="M 0 547.2 
L 864 547.2 
L 864 0 
L 0 0 
z
" style="fill: #ffffff"/>
  </g>
  <g id="axes_1">
   <g id="patch_2">
    <path d="M 108 227.688585 
L 401.684211 227.688585 
L 401.684211 87.552 
L 108 87.552 
z
" style="fill: #ffffff"/>
   </g>
   <g id="matplotlib.axis_1">
    <g id="xtick_1">
     <g id="line2d_1">
      <defs>
       <path id="m15d156216d" d="M 0 0 
L 0 3.5 
" style="stroke: #000000; stroke-width: 0.8"/>
      </defs>
      <g>
       <use xlink:href="#m15d156216d" x="108" y="227.688585" style="stroke: #000000; stroke-width: 0.8"/>
      </g>
     </g>
     <g id="text_1">
      <text style="font-size: 11px; font-family: 'DejaVu Sans', 'Bitstream Vera Sans', 'Computer Modern Sans Serif', 'Lucida Grande', 'Verdana', 'Geneva', 'Lucid', 'Arial', 'Helvetica', 'Avant Garde', sans-serif; text-anchor: middle" x="108" y="243.046867" transform="rotate(-0 108 243.046867)">0</text>
     </g>
    </g>
    <g id="xtick_2">
     <g id="line2d_2">
      <g>
       <use xlink:href="#m15d156216d" x="179.282575" y="227.688585" style="stroke: #000000; stroke-width: 0.8"/>
      </g>
     </g>
     <g id="text_2">
      <text style="font-size: 11px; font-family: 'DejaVu Sans', 'Bitstream Vera Sans', 'Computer Modern Sans Serif', 'Lucida Grande', 'Verdana', 'Geneva', 'Lucid', 'Arial', 'Helvetica', 'Avant Garde', sans-serif; text-anchor: middle" x="179.282575" y="243.046867" transform="rotate(-0 179.282575 243.046867)">50</text>
     </g>
    </g>
    <g id="xtick_3">
     <g id="line2d_3">
      <g>
       <use xlink:href="#m15d156216d" x="250.565151" y="227.688585" style="stroke: #000000; stroke-width: 0.8"/>
      </g>
     </g>
     <g id="text_3">
      <text style="font-size: 11px; font-family: 'DejaVu Sans', 'Bitstream Vera Sans', 'Computer Modern Sans Serif', 'Lucida Grande', 'Verdana', 'Geneva', 'Lucid', 'Arial', 'Helvetica', 'Avant Garde', sans-serif; text-anchor: middle" x="250.565151" y="243.046867" transform="rotate(-0 250.565151 243.046867)">100</text>
     </g>
    </g>
    <g id="xtick_4">
     <g id="line2d_4">
      <g>
       <use xlink:href="#m15d156216d" x="321.847726" y="227.688585" style="stroke: #000000; stroke-width: 0.8"/>
      </g>
     </g>
     <g id="text_4">
      <text style="font-size: 11px; font-family: 'DejaVu Sans', 'Bitstream Vera Sans', 'Computer Modern Sans Serif', 'Lucida Grande', 'Verdana', 'Geneva', 'Lucid', 'Arial', 'Helvetica', 'Avant Garde', sans-serif; text-anchor: middle" x="321.847726" y="243.046867" transform="rotate(-0 321.847726 243.046867)">150</text>
     </g>
    </g>
    <g id="xtick_5">
     <g id="line2d_5">
      <g>
       <use xlink:href="#m15d156216d" x="393.130301" y="227.688585" style="stroke: #000000; stroke-width: 0.8"/>
      </g>
     </g>
     <g id="text_5">
      <text style="font-size: 11px; font-family: 'DejaVu Sans', 'Bitstream Vera Sans', 'Computer Modern Sans Serif', 'Lucida Grande', 'Verdana', 'Geneva', 'Lucid', 'Arial', 'Helvetica', 'Avant Garde', sans-serif; text-anchor: middle" x="393.130301" y="243.046867" transform="rotate(-0 393.130301 243.046867)">200</text>
     </g>
    </g>
    <g id="text_6">
     <text style="font-size: 11px; font-family: 'DejaVu Sans', 'Bitstream Vera Sans', 'Computer Modern Sans Serif', 'Lucida Grande', 'Verdana', 'Geneva', 'Lucid', 'Arial', 'Helvetica', 'Avant Garde', sans-serif; text-anchor: middle" x="254.842105" y="257.692804" transform="rotate(-0 254.842105 257.692804)">Optimizer step</text>
    </g>
   </g>
   <g id="matplotlib.axis_2">
    <g id="ytick_1">
     <g id="line2d_6">
      <path d="M 108 227.688585 
L 401.684211 227.688585 
" clip-path="url(#p78be163c69)" style="fill: none; stroke: #dddddd; stroke-width: 0.7; stroke-linecap: square"/>
     </g>
     <g id="line2d_7">
      <defs>
       <path id="m2126f41b56" d="M 0 0 
L -3.5 0 
" style="stroke: #000000; stroke-width: 0.8"/>
      </defs>
      <g>
       <use xlink:href="#m2126f41b56" x="108" y="227.688585" style="stroke: #000000; stroke-width: 0.8"/>
      </g>
     </g>
     <g id="text_7">
      <text style="font-size: 11px; font-family: 'DejaVu Sans', 'Bitstream Vera Sans', 'Computer Modern Sans Serif', 'Lucida Grande', 'Verdana', 'Geneva', 'Lucid', 'Arial', 'Helvetica', 'Avant Garde', sans-serif; text-anchor: end" x="101" y="231.867726" transform="rotate(-0 101 231.867726)">0%</text>
     </g>
    </g>
    <g id="ytick_2">
     <g id="line2d_8">
      <path d="M 108 199.661268 
L 401.684211 199.661268 
" clip-path="url(#p78be163c69)" style="fill: none; stroke: #dddddd; stroke-width: 0.7; stroke-linecap: square"/>
     </g>
     <g id="line2d_9">
      <g>
       <use xlink:href="#m2126f41b56" x="108" y="199.661268" style="stroke: #000000; stroke-width: 0.8"/>
      </g>
     </g>
     <g id="text_8">
      <text style="font-size: 11px; font-family: 'DejaVu Sans', 'Bitstream Vera Sans', 'Computer Modern Sans Serif', 'Lucida Grande', 'Verdana', 'Geneva', 'Lucid', 'Arial', 'Helvetica', 'Avant Garde', sans-serif; text-anchor: end" x="101" y="203.840409" transform="rotate(-0 101 203.840409)">20%</text>
     </g>
    </g>
    <g id="ytick_3">
     <g id="line2d_10">
      <path d="M 108 171.633951 
L 401.684211 171.633951 
" clip-path="url(#p78be163c69)" style="fill: none; stroke: #dddddd; stroke-width: 0.7; stroke-linecap: square"/>
     </g>
     <g id="line2d_11">
      <g>
       <use xlink:href="#m2126f41b56" x="108" y="171.633951" style="stroke: #000000; stroke-width: 0.8"/>
      </g>
     </g>
     <g id="text_9">
      <text style="font-size: 11px; font-family: 'DejaVu Sans', 'Bitstream Vera Sans', 'Computer Modern Sans Serif', 'Lucida Grande', 'Verdana', 'Geneva', 'Lucid', 'Arial', 'Helvetica', 'Avant Garde', sans-serif; text-anchor: end" x="101" y="175.813092" transform="rotate(-0 101 175.813092)">40%</text>
     </g>
    </g>
    <g id="ytick_4">
     <g id="line2d_12">
      <path d="M 108 143.606634 
L 401.684211 143.606634 
" clip-path="url(#p78be163c69)" style="fill: none; stroke: #dddddd; stroke-width: 0.7; stroke-linecap: square"/>
     </g>
     <g id="line2d_13">
      <g>
       <use xlink:href="#m2126f41b56" x="108" y="143.606634" style="stroke: #000000; stroke-width: 0.8"/>
      </g>
     </g>
     <g id="text_10">
      <text style="font-size: 11px; font-family: 'DejaVu Sans', 'Bitstream Vera Sans', 'Computer Modern Sans Serif', 'Lucida Grande', 'Verdana', 'Geneva', 'Lucid', 'Arial', 'Helvetica', 'Avant Garde', sans-serif; text-anchor: end" x="101" y="147.785775" transform="rotate(-0 101 147.785775)">60%</text>
     </g>
    </g>
    <g id="ytick_5">
     <g id="line2d_14">
      <path d="M 108 115.579317 
L 401.684211 115.579317 
" clip-path="url(#p78be163c69)" style="fill: none; stroke: #dddddd; stroke-width: 0.7; stroke-linecap: square"/>
     </g>
     <g id="line2d_15">
      <g>
       <use xlink:href="#m2126f41b56" x="108" y="115.579317" style="stroke: #000000; stroke-width: 0.8"/>
      </g>
     </g>
     <g id="text_11">
      <text style="font-size: 11px; font-family: 'DejaVu Sans', 'Bitstream Vera Sans', 'Computer Modern Sans Serif', 'Lucida Grande', 'Verdana', 'Geneva', 'Lucid', 'Arial', 'Helvetica', 'Avant Garde', sans-serif; text-anchor: end" x="101" y="119.758458" transform="rotate(-0 101 119.758458)">80%</text>
     </g>
    </g>
    <g id="ytick_6">
     <g id="line2d_16">
      <path d="M 108 87.552 
L 401.684211 87.552 
" clip-path="url(#p78be163c69)" style="fill: none; stroke: #dddddd; stroke-width: 0.7; stroke-linecap: square"/>
     </g>
     <g id="line2d_17">
      <g>
       <use xlink:href="#m2126f41b56" x="108" y="87.552" style="stroke: #000000; stroke-width: 0.8"/>
      </g>
     </g>
     <g id="text_12">
      <text style="font-size: 11px; font-family: 'DejaVu Sans', 'Bitstream Vera Sans', 'Computer Modern Sans Serif', 'Lucida Grande', 'Verdana', 'Geneva', 'Lucid', 'Arial', 'Helvetica', 'Avant Garde', sans-serif; text-anchor: end" x="101" y="91.731141" transform="rotate(-0 101 91.731141)">100%</text>
     </g>
    </g>
    <g id="text_13">
     <text style="font-size: 11px; font-family: 'DejaVu Sans', 'Bitstream Vera Sans', 'Computer Modern Sans Serif', 'Lucida Grande', 'Verdana', 'Geneva', 'Lucid', 'Arial', 'Helvetica', 'Avant Garde', sans-serif; text-anchor: middle" x="63.264375" y="157.620293" transform="rotate(-90 63.264375 157.620293)">Correct rollouts (%)</text>
    </g>
   </g>
   <g id="line2d_18">
    <path d="M 109.425652 157.620293 
L 110.851303 121.491329 
L 112.276955 178.421817 
L 113.702606 134.629134 
L 115.128258 156.525476 
L 116.553909 153.241024 
L 117.979561 147.766939 
L 119.405212 159.809927 
L 120.830864 154.335841 
L 122.256515 157.620293 
L 123.682167 146.672122 
L 125.107818 144.482488 
L 126.53347 171.852915 
L 127.959121 178.421817 
L 129.384773 131.344683 
L 130.810424 152.146207 
L 132.236076 132.4395 
L 133.661727 152.146207 
L 136.51303 180.611451 
L 137.938682 155.430659 
L 139.364333 175.137366 
L 140.789985 155.430659 
L 142.215636 165.284012 
L 143.641288 166.378829 
L 145.066939 156.525476 
L 146.492591 167.473646 
L 147.918242 168.568463 
L 149.343894 155.430659 
L 150.769545 131.344683 
L 152.195197 114.922427 
L 153.620848 160.904744 
L 155.0465 182.801085 
L 156.472151 129.155049 
L 157.897803 144.482488 
L 159.323454 120.396512 
L 160.749106 178.421817 
L 162.174757 129.155049 
L 163.600409 126.965415 
L 165.02606 153.241024 
L 166.451712 144.482488 
L 167.877363 140.10322 
L 169.303015 141.198037 
L 170.728666 123.680963 
L 172.154318 147.766939 
L 173.579969 148.861756 
L 175.005621 136.818768 
L 176.431272 137.913585 
L 177.856924 154.335841 
L 179.282575 174.042549 
L 180.708227 134.629134 
L 182.133878 161.999561 
L 183.55953 176.232183 
L 184.985181 170.758098 
L 186.410833 170.758098 
L 187.836484 157.620293 
L 189.262136 154.335841 
L 190.687787 136.818768 
L 192.113439 143.387671 
L 193.53909 163.094378 
L 194.964742 148.861756 
L 196.390393 137.913585 
L 197.816045 151.05139 
L 199.241696 144.482488 
L 200.667348 142.292854 
L 202.092999 152.146207 
L 203.518651 144.482488 
L 204.944303 183.895902 
L 206.369954 148.861756 
L 207.795606 120.396512 
L 209.221257 116.017244 
L 210.646909 147.766939 
L 212.07256 136.818768 
L 213.498212 155.430659 
L 214.923863 161.999561 
L 217.775166 126.965415 
L 219.200818 159.809927 
L 220.626469 156.525476 
L 222.052121 147.766939 
L 223.477772 145.577305 
L 224.903424 151.05139 
L 226.329075 143.387671 
L 227.754727 140.10322 
L 229.180378 116.017244 
L 230.60603 159.809927 
L 232.031681 159.809927 
L 233.457333 157.620293 
L 234.882984 131.344683 
L 236.308636 139.008402 
L 237.734287 156.525476 
L 239.159939 163.094378 
L 240.58559 119.301695 
L 242.011242 155.430659 
L 243.436893 177.327 
L 244.862545 168.568463 
L 246.288196 121.491329 
L 247.713848 152.146207 
L 249.139499 167.473646 
L 251.990802 136.818768 
L 253.416454 167.473646 
L 254.842105 144.482488 
L 256.267757 131.344683 
L 257.693408 142.292854 
L 259.11906 133.534317 
L 260.544711 172.947732 
L 261.970363 154.335841 
L 263.396014 146.672122 
L 264.821666 174.042549 
L 266.247317 145.577305 
L 267.672969 152.146207 
L 269.09862 165.284012 
L 270.524272 159.809927 
L 271.949923 152.146207 
L 273.375575 136.818768 
L 274.801226 160.904744 
L 276.226878 142.292854 
L 277.652529 141.198037 
L 279.078181 156.525476 
L 280.503832 121.491329 
L 281.929484 122.586146 
L 283.355135 124.77578 
L 284.780787 156.525476 
L 286.206438 140.10322 
L 287.63209 131.344683 
L 289.057741 136.818768 
L 290.483393 180.611451 
L 291.909044 136.818768 
L 293.334696 146.672122 
L 294.760347 166.378829 
L 296.185999 129.155049 
L 297.61165 114.922427 
L 299.037302 145.577305 
L 300.462954 143.387671 
L 301.888605 145.577305 
L 303.314257 139.008402 
L 304.739908 148.861756 
L 306.16556 155.430659 
L 307.591211 155.430659 
L 309.016863 133.534317 
L 310.442514 178.421817 
L 311.868166 132.4395 
L 313.293817 148.861756 
L 314.719469 161.999561 
L 316.14512 148.861756 
L 317.570772 166.378829 
L 318.996423 135.723951 
L 320.422075 141.198037 
L 321.847726 144.482488 
L 323.273378 152.146207 
L 324.699029 156.525476 
L 326.124681 144.482488 
L 327.550332 140.10322 
L 328.975984 147.766939 
L 330.401635 152.146207 
L 331.827287 136.818768 
L 333.252938 136.818768 
L 334.67859 122.586146 
L 336.104241 130.249866 
L 337.529893 133.534317 
L 338.955544 167.473646 
L 340.381196 184.99072 
L 341.806847 176.232183 
L 343.232499 123.680963 
L 344.65815 132.4395 
L 346.083802 144.482488 
L 347.509453 147.766939 
L 348.935105 165.284012 
L 350.360756 133.534317 
L 351.786408 156.525476 
L 353.212059 143.387671 
L 354.637711 140.10322 
L 356.063362 128.060232 
L 357.489014 137.913585 
L 358.914665 134.629134 
L 360.340317 155.430659 
L 361.765968 184.99072 
L 363.19162 168.568463 
L 364.617271 149.956573 
L 366.042923 140.10322 
L 367.468574 155.430659 
L 368.894226 140.10322 
L 370.319877 114.922427 
L 371.745529 199.223341 
L 373.17118 146.672122 
L 374.596832 149.956573 
L 376.022483 123.680963 
L 377.448135 139.008402 
L 378.873786 126.965415 
L 380.299438 146.672122 
L 381.725089 168.568463 
L 383.150741 153.241024 
L 384.576392 165.284012 
L 386.002044 139.008402 
L 387.427695 188.275171 
L 388.853347 128.060232 
L 390.278998 160.904744 
L 391.70465 134.629134 
L 391.70465 134.629134 
" clip-path="url(#p78be163c69)" style="fill: none; stroke: #ee771c; stroke-opacity: 0.25; stroke-linecap: square"/>
   </g>
   <g id="line2d_19">
    <path d="M 122.256515 152.146207 
L 123.682167 151.05139 
L 125.107818 153.350506 
L 126.53347 152.693616 
L 127.959121 157.072884 
L 129.384773 154.554805 
L 130.810424 154.445323 
L 132.236076 152.912579 
L 133.661727 152.146207 
L 135.087379 153.350506 
L 136.51303 155.649622 
L 137.938682 156.525476 
L 139.364333 159.590963 
L 140.789985 157.948738 
L 142.215636 156.634957 
L 143.641288 160.138372 
L 145.066939 160.576299 
L 146.492591 164.079713 
L 147.918242 165.721939 
L 149.343894 164.627122 
L 150.769545 159.700445 
L 152.195197 155.649622 
L 153.620848 154.22636 
L 155.0465 156.963402 
L 156.472151 153.350506 
L 157.897803 151.160872 
L 159.323454 147.547976 
L 160.749106 148.642793 
L 162.174757 144.701451 
L 163.600409 141.854927 
L 165.02606 144.044561 
L 166.451712 147.000567 
L 167.877363 144.920415 
L 169.303015 140.76011 
L 170.728666 140.212701 
L 172.154318 140.541146 
L 173.579969 143.387671 
L 175.005621 139.227366 
L 176.431272 140.10322 
L 177.856924 142.840262 
L 179.282575 144.920415 
L 180.708227 143.935079 
L 182.133878 146.124713 
L 183.55953 149.628128 
L 184.985181 154.335841 
L 186.410833 156.634957 
L 187.836484 157.510811 
L 189.262136 159.262518 
L 190.687787 159.153037 
L 193.53909 156.963402 
L 194.964742 158.386665 
L 197.816045 153.459988 
L 200.667348 147.985902 
L 202.092999 147.438494 
L 203.518651 146.453159 
L 204.944303 151.160872 
L 206.369954 151.70828 
L 207.795606 147.438494 
L 209.221257 144.154043 
L 210.646909 145.139378 
L 212.07256 143.716116 
L 213.498212 144.810933 
L 214.923863 146.781604 
L 216.349515 146.015232 
L 217.775166 144.263524 
L 219.200818 141.854927 
L 220.626469 142.621299 
L 223.477772 148.314348 
L 224.903424 148.642793 
L 226.329075 149.299683 
L 227.754727 147.766939 
L 229.180378 143.168707 
L 230.60603 144.701451 
L 232.031681 147.985902 
L 233.457333 147.766939 
L 234.882984 145.24886 
L 236.308636 144.373006 
L 239.159939 146.672122 
L 240.58559 144.263524 
L 242.011242 145.796268 
L 243.436893 151.927244 
L 244.862545 152.803098 
L 246.288196 148.971238 
L 247.713848 148.423829 
L 249.139499 152.036726 
L 250.565151 153.350506 
L 251.990802 151.379835 
L 253.416454 151.817762 
L 254.842105 154.335841 
L 256.267757 151.927244 
L 259.11906 144.920415 
L 260.544711 150.066055 
L 261.970363 150.285018 
L 263.396014 148.204866 
L 264.821666 150.3945 
L 266.247317 151.270354 
L 267.672969 149.73761 
L 269.09862 151.817762 
L 270.524272 154.664287 
L 271.949923 155.649622 
L 273.375575 155.978067 
L 276.226878 153.56947 
L 277.652529 153.022061 
L 279.078181 151.270354 
L 280.503832 148.861756 
L 281.929484 145.90575 
L 283.355135 141.854927 
L 284.780787 141.526482 
L 286.206438 140.322183 
L 287.63209 139.774774 
L 289.057741 137.366177 
L 290.483393 141.198037 
L 291.909044 140.76011 
L 293.334696 139.774774 
L 294.760347 144.263524 
L 296.185999 144.920415 
L 299.037302 142.840262 
L 300.462954 143.168707 
L 301.888605 144.59197 
L 303.314257 144.810933 
L 304.739908 141.635963 
L 306.16556 143.497152 
L 307.591211 144.373006 
L 309.016863 141.088555 
L 310.442514 146.015232 
L 311.868166 147.766939 
L 313.293817 148.095384 
L 314.719469 149.956573 
L 316.14512 150.285018 
L 317.570772 153.022061 
L 321.847726 149.190201 
L 323.273378 151.05139 
L 324.699029 148.861756 
L 326.124681 150.066055 
L 327.550332 149.190201 
L 328.975984 147.766939 
L 330.401635 148.095384 
L 331.827287 145.139378 
L 333.252938 145.24886 
L 334.67859 143.387671 
L 336.104241 141.964409 
L 337.529893 140.10322 
L 338.955544 141.198037 
L 340.381196 145.24886 
L 341.806847 148.861756 
L 343.232499 146.453159 
L 344.65815 144.482488 
L 346.083802 145.24886 
L 347.509453 146.343677 
L 348.935105 150.613463 
L 350.360756 150.941909 
L 351.786408 153.241024 
L 353.212059 150.832427 
L 356.063362 141.526482 
L 357.489014 142.949744 
L 358.914665 143.168707 
L 360.340317 144.263524 
L 361.765968 147.985902 
L 363.19162 148.314348 
L 364.617271 149.956573 
L 366.042923 148.314348 
L 367.468574 149.518646 
L 368.894226 149.518646 
L 370.319877 148.204866 
L 371.745529 154.335841 
L 373.17118 155.54014 
L 374.596832 154.992732 
L 376.022483 148.861756 
L 377.448135 145.90575 
L 378.873786 143.606634 
L 380.299438 144.263524 
L 383.150741 146.891085 
L 384.576392 151.927244 
L 386.002044 145.90575 
L 387.427695 150.066055 
L 388.853347 147.876421 
L 390.278998 151.598799 
L 391.70465 151.160872 
L 391.70465 151.160872 
" clip-path="url(#p78be163c69)" style="fill: none; stroke: #ee771c; stroke-width: 2.3; stroke-linecap: square"/>
   </g>
   <g id="patch_3">
    <path d="M 108 227.688585 
L 108 87.552 
" style="fill: none; stroke: #000000; stroke-width: 0.8; stroke-linejoin: miter; stroke-linecap: square"/>
   </g>
   <g id="patch_4">
    <path d="M 108 227.688585 
L 401.684211 227.688585 
" style="fill: none; stroke: #000000; stroke-width: 0.8; stroke-linejoin: miter; stroke-linecap: square"/>
   </g>
   <g id="text_14">
    <text style="font-size: 12px; font-family: 'DejaVu Sans', 'Bitstream Vera Sans', 'Computer Modern Sans Serif', 'Lucida Grande', 'Verdana', 'Geneva', 'Lucid', 'Arial', 'Helvetica', 'Avant Garde', sans-serif; text-anchor: start" x="108" y="81.552" transform="rotate(-0 108 81.552)">Training reward</text>
   </g>
   <g id="legend_1">
    <g id="line2d_20">
     <path d="M 311.543586 213.108898 
L 321.543586 213.108898 
L 331.543586 213.108898 
" style="fill: none; stroke: #ee771c; stroke-width: 2.3; stroke-linecap: square"/>
    </g>
    <g id="text_15">
     <text style="font-size: 10px; font-family: 'DejaVu Sans', 'Bitstream Vera Sans', 'Computer Modern Sans Serif', 'Lucida Grande', 'Verdana', 'Geneva', 'Lucid', 'Arial', 'Helvetica', 'Avant Garde', sans-serif; text-anchor: start" x="339.543586" y="216.608898" transform="rotate(-0 339.543586 216.608898)">Solo GRPO</text>
    </g>
   </g>
  </g>
  <g id="axes_2">
   <g id="patch_5">
    <path d="M 483.915789 227.688585 
L 777.6 227.688585 
L 777.6 87.552 
L 483.915789 87.552 
z
" style="fill: #ffffff"/>
   </g>
   <g id="matplotlib.axis_3">
    <g id="xtick_6">
     <g id="line2d_21">
      <g>
       <use xlink:href="#m15d156216d" x="483.915789" y="227.688585" style="stroke: #000000; stroke-width: 0.8"/>
      </g>
     </g>
     <g id="text_16">
      <text style="font-size: 11px; font-family: 'DejaVu Sans', 'Bitstream Vera Sans', 'Computer Modern Sans Serif', 'Lucida Grande', 'Verdana', 'Geneva', 'Lucid', 'Arial', 'Helvetica', 'Avant Garde', sans-serif; text-anchor: middle" x="483.915789" y="243.046867" transform="rotate(-0 483.915789 243.046867)">0</text>
     </g>
    </g>
    <g id="xtick_7">
     <g id="line2d_22">
      <g>
       <use xlink:href="#m15d156216d" x="555.198365" y="227.688585" style="stroke: #000000; stroke-width: 0.8"/>
      </g>
     </g>
     <g id="text_17">
      <text style="font-size: 11px; font-family: 'DejaVu Sans', 'Bitstream Vera Sans', 'Computer Modern Sans Serif', 'Lucida Grande', 'Verdana', 'Geneva', 'Lucid', 'Arial', 'Helvetica', 'Avant Garde', sans-serif; text-anchor: middle" x="555.198365" y="243.046867" transform="rotate(-0 555.198365 243.046867)">50</text>
     </g>
    </g>
    <g id="xtick_8">
     <g id="line2d_23">
      <g>
       <use xlink:href="#m15d156216d" x="626.48094" y="227.688585" style="stroke: #000000; stroke-width: 0.8"/>
      </g>
     </g>
     <g id="text_18">
      <text style="font-size: 11px; font-family: 'DejaVu Sans', 'Bitstream Vera Sans', 'Computer Modern Sans Serif', 'Lucida Grande', 'Verdana', 'Geneva', 'Lucid', 'Arial', 'Helvetica', 'Avant Garde', sans-serif; text-anchor: middle" x="626.48094" y="243.046867" transform="rotate(-0 626.48094 243.046867)">100</text>
     </g>
    </g>
    <g id="xtick_9">
     <g id="line2d_24">
      <g>
       <use xlink:href="#m15d156216d" x="697.763516" y="227.688585" style="stroke: #000000; stroke-width: 0.8"/>
      </g>
     </g>
     <g id="text_19">
      <text style="font-size: 11px; font-family: 'DejaVu Sans', 'Bitstream Vera Sans', 'Computer Modern Sans Serif', 'Lucida Grande', 'Verdana', 'Geneva', 'Lucid', 'Arial', 'Helvetica', 'Avant Garde', sans-serif; text-anchor: middle" x="697.763516" y="243.046867" transform="rotate(-0 697.763516 243.046867)">150</text>
     </g>
    </g>
    <g id="xtick_10">
     <g id="line2d_25">
      <g>
       <use xlink:href="#m15d156216d" x="769.046091" y="227.688585" style="stroke: #000000; stroke-width: 0.8"/>
      </g>
     </g>
     <g id="text_20">
      <text style="font-size: 11px; font-family: 'DejaVu Sans', 'Bitstream Vera Sans', 'Computer Modern Sans Serif', 'Lucida Grande', 'Verdana', 'Geneva', 'Lucid', 'Arial', 'Helvetica', 'Avant Garde', sans-serif; text-anchor: middle" x="769.046091" y="243.046867" transform="rotate(-0 769.046091 243.046867)">200</text>
     </g>
    </g>
    <g id="text_21">
     <text style="font-size: 11px; font-family: 'DejaVu Sans', 'Bitstream Vera Sans', 'Computer Modern Sans Serif', 'Lucida Grande', 'Verdana', 'Geneva', 'Lucid', 'Arial', 'Helvetica', 'Avant Garde', sans-serif; text-anchor: middle" x="630.757895" y="257.692804" transform="rotate(-0 630.757895 257.692804)">Optimizer step</text>
    </g>
   </g>
   <g id="matplotlib.axis_4">
    <g id="ytick_7">
     <g id="line2d_26">
      <path d="M 483.915789 227.688585 
L 777.6 227.688585 
" clip-path="url(#p607c90f0b9)" style="fill: none; stroke: #dddddd; stroke-width: 0.7; stroke-linecap: square"/>
     </g>
     <g id="line2d_27">
      <g>
       <use xlink:href="#m2126f41b56" x="483.915789" y="227.688585" style="stroke: #000000; stroke-width: 0.8"/>
      </g>
     </g>
     <g id="text_22">
      <text style="font-size: 11px; font-family: 'DejaVu Sans', 'Bitstream Vera Sans', 'Computer Modern Sans Serif', 'Lucida Grande', 'Verdana', 'Geneva', 'Lucid', 'Arial', 'Helvetica', 'Avant Garde', sans-serif; text-anchor: end" x="476.915789" y="231.867726" transform="rotate(-0 476.915789 231.867726)">50%</text>
     </g>
    </g>
    <g id="ytick_8">
     <g id="line2d_28">
      <path d="M 483.915789 199.661268 
L 777.6 199.661268 
" clip-path="url(#p607c90f0b9)" style="fill: none; stroke: #dddddd; stroke-width: 0.7; stroke-linecap: square"/>
     </g>
     <g id="line2d_29">
      <g>
       <use xlink:href="#m2126f41b56" x="483.915789" y="199.661268" style="stroke: #000000; stroke-width: 0.8"/>
      </g>
     </g>
     <g id="text_23">
      <text style="font-size: 11px; font-family: 'DejaVu Sans', 'Bitstream Vera Sans', 'Computer Modern Sans Serif', 'Lucida Grande', 'Verdana', 'Geneva', 'Lucid', 'Arial', 'Helvetica', 'Avant Garde', sans-serif; text-anchor: end" x="476.915789" y="203.840409" transform="rotate(-0 476.915789 203.840409)">55%</text>
     </g>
    </g>
    <g id="ytick_9">
     <g id="line2d_30">
      <path d="M 483.915789 171.633951 
L 777.6 171.633951 
" clip-path="url(#p607c90f0b9)" style="fill: none; stroke: #dddddd; stroke-width: 0.7; stroke-linecap: square"/>
     </g>
     <g id="line2d_31">
      <g>
       <use xlink:href="#m2126f41b56" x="483.915789" y="171.633951" style="stroke: #000000; stroke-width: 0.8"/>
      </g>
     </g>
     <g id="text_24">
      <text style="font-size: 11px; font-family: 'DejaVu Sans', 'Bitstream Vera Sans', 'Computer Modern Sans Serif', 'Lucida Grande', 'Verdana', 'Geneva', 'Lucid', 'Arial', 'Helvetica', 'Avant Garde', sans-serif; text-anchor: end" x="476.915789" y="175.813092" transform="rotate(-0 476.915789 175.813092)">60%</text>
     </g>
    </g>
    <g id="ytick_10">
     <g id="line2d_32">
      <path d="M 483.915789 143.606634 
L 777.6 143.606634 
" clip-path="url(#p607c90f0b9)" style="fill: none; stroke: #dddddd; stroke-width: 0.7; stroke-linecap: square"/>
     </g>
     <g id="line2d_33">
      <g>
       <use xlink:href="#m2126f41b56" x="483.915789" y="143.606634" style="stroke: #000000; stroke-width: 0.8"/>
      </g>
     </g>
     <g id="text_25">
      <text style="font-size: 11px; font-family: 'DejaVu Sans', 'Bitstream Vera Sans', 'Computer Modern Sans Serif', 'Lucida Grande', 'Verdana', 'Geneva', 'Lucid', 'Arial', 'Helvetica', 'Avant Garde', sans-serif; text-anchor: end" x="476.915789" y="147.785775" transform="rotate(-0 476.915789 147.785775)">65%</text>
     </g>
    </g>
    <g id="ytick_11">
     <g id="line2d_34">
      <path d="M 483.915789 115.579317 
L 777.6 115.579317 
" clip-path="url(#p607c90f0b9)" style="fill: none; stroke: #dddddd; stroke-width: 0.7; stroke-linecap: square"/>
     </g>
     <g id="line2d_35">
      <g>
       <use xlink:href="#m2126f41b56" x="483.915789" y="115.579317" style="stroke: #000000; stroke-width: 0.8"/>
      </g>
     </g>
     <g id="text_26">
      <text style="font-size: 11px; font-family: 'DejaVu Sans', 'Bitstream Vera Sans', 'Computer Modern Sans Serif', 'Lucida Grande', 'Verdana', 'Geneva', 'Lucid', 'Arial', 'Helvetica', 'Avant Garde', sans-serif; text-anchor: end" x="476.915789" y="119.758458" transform="rotate(-0 476.915789 119.758458)">70%</text>
     </g>
    </g>
    <g id="ytick_12">
     <g id="line2d_36">
      <path d="M 483.915789 87.552 
L 777.6 87.552 
" clip-path="url(#p607c90f0b9)" style="fill: none; stroke: #dddddd; stroke-width: 0.7; stroke-linecap: square"/>
     </g>
     <g id="line2d_37">
      <g>
       <use xlink:href="#m2126f41b56" x="483.915789" y="87.552" style="stroke: #000000; stroke-width: 0.8"/>
      </g>
     </g>
     <g id="text_27">
      <text style="font-size: 11px; font-family: 'DejaVu Sans', 'Bitstream Vera Sans', 'Computer Modern Sans Serif', 'Lucida Grande', 'Verdana', 'Geneva', 'Lucid', 'Arial', 'Helvetica', 'Avant Garde', sans-serif; text-anchor: end" x="476.915789" y="91.731141" transform="rotate(-0 476.915789 91.731141)">75%</text>
     </g>
    </g>
    <g id="text_28">
     <text style="font-size: 11px; font-family: 'DejaVu Sans', 'Bitstream Vera Sans', 'Computer Modern Sans Serif', 'Lucida Grande', 'Verdana', 'Geneva', 'Lucid', 'Arial', 'Helvetica', 'Avant Garde', sans-serif; text-anchor: middle" x="446.178914" y="157.620293" transform="rotate(-90 446.178914 157.620293)">Pass@4 (%)</text>
    </g>
   </g>
   <g id="line2d_38">
    <path d="M 512.42882 171.875227 
L 540.94185 161.402157 
L 569.45488 152.611286 
L 597.96791 143.900654 
L 626.48094 141.980545 
L 654.99397 140.69112 
L 683.507001 137.13426 
L 712.020031 130.422854 
L 740.533061 133.247468 
" clip-path="url(#p607c90f0b9)" style="fill: none; stroke: #ee771c; stroke-width: 1.6; stroke-linecap: square"/>
    <defs>
     <path id="ma4c6a8ae9a" d="M 0 2.5 
C 0.663008 2.5 1.29895 2.236584 1.767767 1.767767 
C 2.236584 1.29895 2.5 0.663008 2.5 0 
C 2.5 -0.663008 2.236584 -1.29895 1.767767 -1.767767 
C 1.29895 -2.236584 0.663008 -2.5 0 -2.5 
C -0.663008 -2.5 -1.29895 -2.236584 -1.767767 -1.767767 
C -2.236584 -1.29895 -2.5 -0.663008 -2.5 0 
C -2.5 0.663008 -2.236584 1.29895 -1.767767 1.767767 
C -1.29895 2.236584 -0.663008 2.5 0 2.5 
z
" style="stroke: #ee771c"/>
    </defs>
    <g clip-path="url(#p607c90f0b9)">
     <use xlink:href="#ma4c6a8ae9a" x="512.42882" y="171.875227" style="fill: #ee771c; stroke: #ee771c"/>
     <use xlink:href="#ma4c6a8ae9a" x="540.94185" y="161.402157" style="fill: #ee771c; stroke: #ee771c"/>
     <use xlink:href="#ma4c6a8ae9a" x="569.45488" y="152.611286" style="fill: #ee771c; stroke: #ee771c"/>
     <use xlink:href="#ma4c6a8ae9a" x="597.96791" y="143.900654" style="fill: #ee771c; stroke: #ee771c"/>
     <use xlink:href="#ma4c6a8ae9a" x="626.48094" y="141.980545" style="fill: #ee771c; stroke: #ee771c"/>
     <use xlink:href="#ma4c6a8ae9a" x="654.99397" y="140.69112" style="fill: #ee771c; stroke: #ee771c"/>
     <use xlink:href="#ma4c6a8ae9a" x="683.507001" y="137.13426" style="fill: #ee771c; stroke: #ee771c"/>
     <use xlink:href="#ma4c6a8ae9a" x="712.020031" y="130.422854" style="fill: #ee771c; stroke: #ee771c"/>
     <use xlink:href="#ma4c6a8ae9a" x="740.533061" y="133.247468" style="fill: #ee771c; stroke: #ee771c"/>
    </g>
   </g>
   <g id="patch_6">
    <path d="M 483.915789 227.688585 
L 483.915789 87.552 
" style="fill: none; stroke: #000000; stroke-width: 0.8; stroke-linejoin: miter; stroke-linecap: square"/>
   </g>
   <g id="patch_7">
    <path d="M 483.915789 227.688585 
L 777.6 227.688585 
" style="fill: none; stroke: #000000; stroke-width: 0.8; stroke-linejoin: miter; stroke-linecap: square"/>
   </g>
   <g id="text_29">
    <text style="font-size: 11px; font-family: 'DejaVu Sans', 'Bitstream Vera Sans', 'Computer Modern Sans Serif', 'Lucida Grande', 'Verdana', 'Geneva', 'Lucid', 'Arial', 'Helvetica', 'Avant Garde', sans-serif; text-anchor: start; fill: #ee771c" x="747.533061" y="128.247468" transform="rotate(-0 747.533061 128.247468)">66.8%</text>
   </g>
   <g id="text_30">
    <text style="font-size: 12px; font-family: 'DejaVu Sans', 'Bitstream Vera Sans', 'Computer Modern Sans Serif', 'Lucida Grande', 'Verdana', 'Geneva', 'Lucid', 'Arial', 'Helvetica', 'Avant Garde', sans-serif; text-anchor: start" x="483.915789" y="81.552" transform="rotate(-0 483.915789 81.552)">Held-out DeepScaleR accuracy</text>
   </g>
  </g>
  <g id="axes_3">
   <g id="patch_8">
    <path d="M 108 432.288 
L 401.684211 432.288 
L 401.684211 292.151415 
L 108 292.151415 
z
" style="fill: #ffffff"/>
   </g>
   <g id="matplotlib.axis_5">
    <g id="xtick_11">
     <g id="line2d_39">
      <g>
       <use xlink:href="#m15d156216d" x="108" y="432.288" style="stroke: #000000; stroke-width: 0.8"/>
      </g>
     </g>
     <g id="text_31">
      <text style="font-size: 11px; font-family: 'DejaVu Sans', 'Bitstream Vera Sans', 'Computer Modern Sans Serif', 'Lucida Grande', 'Verdana', 'Geneva', 'Lucid', 'Arial', 'Helvetica', 'Avant Garde', sans-serif; text-anchor: middle" x="108" y="447.646281" transform="rotate(-0 108 447.646281)">0</text>
     </g>
    </g>
    <g id="xtick_12">
     <g id="line2d_40">
      <g>
       <use xlink:href="#m15d156216d" x="179.282575" y="432.288" style="stroke: #000000; stroke-width: 0.8"/>
      </g>
     </g>
     <g id="text_32">
      <text style="font-size: 11px; font-family: 'DejaVu Sans', 'Bitstream Vera Sans', 'Computer Modern Sans Serif', 'Lucida Grande', 'Verdana', 'Geneva', 'Lucid', 'Arial', 'Helvetica', 'Avant Garde', sans-serif; text-anchor: middle" x="179.282575" y="447.646281" transform="rotate(-0 179.282575 447.646281)">50</text>
     </g>
    </g>
    <g id="xtick_13">
     <g id="line2d_41">
      <g>
       <use xlink:href="#m15d156216d" x="250.565151" y="432.288" style="stroke: #000000; stroke-width: 0.8"/>
      </g>
     </g>
     <g id="text_33">
      <text style="font-size: 11px; font-family: 'DejaVu Sans', 'Bitstream Vera Sans', 'Computer Modern Sans Serif', 'Lucida Grande', 'Verdana', 'Geneva', 'Lucid', 'Arial', 'Helvetica', 'Avant Garde', sans-serif; text-anchor: middle" x="250.565151" y="447.646281" transform="rotate(-0 250.565151 447.646281)">100</text>
     </g>
    </g>
    <g id="xtick_14">
     <g id="line2d_42">
      <g>
       <use xlink:href="#m15d156216d" x="321.847726" y="432.288" style="stroke: #000000; stroke-width: 0.8"/>
      </g>
     </g>
     <g id="text_34">
      <text style="font-size: 11px; font-family: 'DejaVu Sans', 'Bitstream Vera Sans', 'Computer Modern Sans Serif', 'Lucida Grande', 'Verdana', 'Geneva', 'Lucid', 'Arial', 'Helvetica', 'Avant Garde', sans-serif; text-anchor: middle" x="321.847726" y="447.646281" transform="rotate(-0 321.847726 447.646281)">150</text>
     </g>
    </g>
    <g id="xtick_15">
     <g id="line2d_43">
      <g>
       <use xlink:href="#m15d156216d" x="393.130301" y="432.288" style="stroke: #000000; stroke-width: 0.8"/>
      </g>
     </g>
     <g id="text_35">
      <text style="font-size: 11px; font-family: 'DejaVu Sans', 'Bitstream Vera Sans', 'Computer Modern Sans Serif', 'Lucida Grande', 'Verdana', 'Geneva', 'Lucid', 'Arial', 'Helvetica', 'Avant Garde', sans-serif; text-anchor: middle" x="393.130301" y="447.646281" transform="rotate(-0 393.130301 447.646281)">200</text>
     </g>
    </g>
    <g id="text_36">
     <text style="font-size: 11px; font-family: 'DejaVu Sans', 'Bitstream Vera Sans', 'Computer Modern Sans Serif', 'Lucida Grande', 'Verdana', 'Geneva', 'Lucid', 'Arial', 'Helvetica', 'Avant Garde', sans-serif; text-anchor: middle" x="254.842105" y="462.292219" transform="rotate(-0 254.842105 462.292219)">Optimizer step</text>
    </g>
   </g>
   <g id="matplotlib.axis_6">
    <g id="ytick_13">
     <g id="line2d_44">
      <path d="M 108 432.288 
L 401.684211 432.288 
" clip-path="url(#pcb302cdb3a)" style="fill: none; stroke: #dddddd; stroke-width: 0.7; stroke-linecap: square"/>
     </g>
     <g id="line2d_45">
      <g>
       <use xlink:href="#m2126f41b56" x="108" y="432.288" style="stroke: #000000; stroke-width: 0.8"/>
      </g>
     </g>
     <g id="text_37">
      <text style="font-size: 11px; font-family: 'DejaVu Sans', 'Bitstream Vera Sans', 'Computer Modern Sans Serif', 'Lucida Grande', 'Verdana', 'Geneva', 'Lucid', 'Arial', 'Helvetica', 'Avant Garde', sans-serif; text-anchor: end" x="101" y="436.467141" transform="rotate(-0 101 436.467141)">0</text>
     </g>
    </g>
    <g id="ytick_14">
     <g id="line2d_46">
      <path d="M 108 388.495317 
L 401.684211 388.495317 
" clip-path="url(#pcb302cdb3a)" style="fill: none; stroke: #dddddd; stroke-width: 0.7; stroke-linecap: square"/>
     </g>
     <g id="line2d_47">
      <g>
       <use xlink:href="#m2126f41b56" x="108" y="388.495317" style="stroke: #000000; stroke-width: 0.8"/>
      </g>
     </g>
     <g id="text_38">
      <text style="font-size: 11px; font-family: 'DejaVu Sans', 'Bitstream Vera Sans', 'Computer Modern Sans Serif', 'Lucida Grande', 'Verdana', 'Geneva', 'Lucid', 'Arial', 'Helvetica', 'Avant Garde', sans-serif; text-anchor: end" x="101" y="392.674458" transform="rotate(-0 101 392.674458)">1000</text>
     </g>
    </g>
    <g id="ytick_15">
     <g id="line2d_48">
      <path d="M 108 344.702634 
L 401.684211 344.702634 
" clip-path="url(#pcb302cdb3a)" style="fill: none; stroke: #dddddd; stroke-width: 0.7; stroke-linecap: square"/>
     </g>
     <g id="line2d_49">
      <g>
       <use xlink:href="#m2126f41b56" x="108" y="344.702634" style="stroke: #000000; stroke-width: 0.8"/>
      </g>
     </g>
     <g id="text_39">
      <text style="font-size: 11px; font-family: 'DejaVu Sans', 'Bitstream Vera Sans', 'Computer Modern Sans Serif', 'Lucida Grande', 'Verdana', 'Geneva', 'Lucid', 'Arial', 'Helvetica', 'Avant Garde', sans-serif; text-anchor: end" x="101" y="348.881775" transform="rotate(-0 101 348.881775)">2000</text>
     </g>
    </g>
    <g id="ytick_16">
     <g id="line2d_50">
      <path d="M 108 300.909951 
L 401.684211 300.909951 
" clip-path="url(#pcb302cdb3a)" style="fill: none; stroke: #dddddd; stroke-width: 0.7; stroke-linecap: square"/>
     </g>
     <g id="line2d_51">
      <g>
       <use xlink:href="#m2126f41b56" x="108" y="300.909951" style="stroke: #000000; stroke-width: 0.8"/>
      </g>
     </g>
     <g id="text_40">
      <text style="font-size: 11px; font-family: 'DejaVu Sans', 'Bitstream Vera Sans', 'Computer Modern Sans Serif', 'Lucida Grande', 'Verdana', 'Geneva', 'Lucid', 'Arial', 'Helvetica', 'Avant Garde', sans-serif; text-anchor: end" x="101" y="305.089092" transform="rotate(-0 101 305.089092)">3000</text>
     </g>
    </g>
    <g id="text_41">
     <text style="font-size: 11px; font-family: 'DejaVu Sans', 'Bitstream Vera Sans', 'Computer Modern Sans Serif', 'Lucida Grande', 'Verdana', 'Geneva', 'Lucid', 'Arial', 'Helvetica', 'Avant Garde', sans-serif; text-anchor: middle" x="66.717344" y="362.219707" transform="rotate(-90 66.717344 362.219707)">Generated tokens</text>
    </g>
   </g>
   <g id="line2d_52">
    <path d="M 109.425652 349.152723 
L 112.276955 345.158694 
L 113.702606 355.701782 
L 115.128258 342.750438 
L 116.553909 344.586994 
L 117.979561 359.402606 
L 119.405212 335.839406 
L 120.830864 348.717876 
L 122.256515 350.795975 
L 123.682167 358.069324 
L 125.107818 358.769665 
L 126.53347 333.235452 
L 127.959121 329.923288 
L 129.384773 373.711865 
L 130.810424 364.619409 
L 132.236076 358.403243 
L 133.661727 360.792682 
L 135.087379 337.243509 
L 136.51303 350.184246 
L 139.364333 322.465873 
L 140.789985 351.938006 
L 142.215636 336.884614 
L 143.641288 344.180543 
L 145.066939 335.128459 
L 146.492591 334.784276 
L 147.918242 342.805521 
L 149.343894 352.832677 
L 150.769545 348.519782 
L 152.195197 363.878355 
L 153.620848 355.367863 
L 155.0465 336.114478 
L 156.472151 362.632317 
L 157.897803 351.75702 
L 159.323454 372.763138 
L 160.749106 329.883259 
L 162.174757 361.862865 
L 163.600409 357.261897 
L 165.02606 352.078622 
L 166.451712 361.569318 
L 167.877363 355.141373 
L 169.303015 352.010196 
L 170.728666 374.23464 
L 172.154318 354.975097 
L 173.579969 357.524653 
L 175.005621 367.798142 
L 176.431272 373.158641 
L 177.856924 354.063662 
L 179.282575 339.954207 
L 180.708227 353.483751 
L 182.133878 332.757496 
L 183.55953 355.326807 
L 184.985181 334.76888 
L 186.410833 354.814638 
L 187.836484 348.222471 
L 189.262136 356.760334 
L 190.687787 356.025095 
L 192.113439 361.222055 
L 193.53909 352.072122 
L 194.964742 371.632055 
L 197.816045 345.055028 
L 199.241696 360.66233 
L 200.667348 350.574617 
L 202.092999 349.302577 
L 203.518651 359.855245 
L 204.944303 335.091167 
L 206.369954 350.599593 
L 207.795606 363.32821 
L 209.221257 373.823742 
L 210.646909 357.386432 
L 212.07256 361.139602 
L 213.498212 352.276716 
L 214.923863 346.027705 
L 216.349515 350.625252 
L 217.775166 358.716977 
L 219.200818 349.740161 
L 220.626469 348.69769 
L 222.052121 363.129432 
L 223.477772 365.333778 
L 224.903424 357.076462 
L 226.329075 359.438872 
L 227.754727 360.301725 
L 229.180378 371.680637 
L 230.60603 349.694316 
L 232.031681 351.709463 
L 233.457333 346.463237 
L 234.882984 371.490071 
L 236.308636 370.491392 
L 237.734287 354.182724 
L 239.159939 359.567171 
L 240.58559 374.469684 
L 242.011242 347.299061 
L 243.436893 355.259408 
L 244.862545 362.238524 
L 246.288196 368.056793 
L 247.713848 369.538902 
L 249.139499 333.204318 
L 250.565151 360.06805 
L 251.990802 359.283203 
L 253.416454 333.820837 
L 254.842105 349.82672 
L 256.267757 376.357559 
L 257.693408 365.983483 
L 259.11906 367.017059 
L 260.544711 363.830799 
L 261.970363 357.294399 
L 263.396014 370.020963 
L 264.821666 336.935933 
L 266.247317 348.799645 
L 267.672969 347.246031 
L 269.09862 365.366622 
L 270.524272 357.410039 
L 271.949923 366.417647 
L 273.375575 348.412696 
L 274.801226 343.773408 
L 276.226878 363.319998 
L 277.652529 367.83304 
L 279.078181 356.313169 
L 280.503832 377.74045 
L 283.355135 363.003528 
L 284.780787 349.793534 
L 286.206438 360.457394 
L 287.63209 368.888512 
L 289.057741 375.601109 
L 290.483393 360.45842 
L 291.909044 371.606395 
L 293.334696 354.595675 
L 294.760347 359.968832 
L 296.185999 359.204855 
L 297.61165 388.030704 
L 299.037302 372.944467 
L 300.462954 361.622006 
L 301.888605 377.620362 
L 303.314257 351.662592 
L 304.739908 369.998725 
L 306.16556 362.489648 
L 307.591211 375.097835 
L 309.016863 362.103383 
L 310.442514 354.61894 
L 313.293817 375.223055 
L 314.719469 357.871573 
L 316.14512 360.541216 
L 317.570772 347.952872 
L 318.996423 377.310392 
L 320.422075 364.816477 
L 321.847726 362.507439 
L 323.273378 352.396119 
L 324.699029 356.779835 
L 326.124681 375.500865 
L 327.550332 363.379187 
L 328.975984 373.601015 
L 330.401635 376.831068 
L 331.827287 360.890189 
L 333.252938 369.320965 
L 334.67859 376.746903 
L 336.104241 376.17144 
L 337.529893 363.511249 
L 338.955544 352.616109 
L 340.381196 339.242918 
L 341.806847 362.911837 
L 343.232499 369.358599 
L 344.65815 361.215213 
L 346.083802 359.30852 
L 347.509453 348.396958 
L 348.935105 369.698334 
L 350.360756 365.384755 
L 351.786408 372.875014 
L 353.212059 368.371895 
L 354.637711 367.140226 
L 356.063362 380.084385 
L 357.489014 374.043047 
L 358.914665 352.829598 
L 360.340317 382.141957 
L 361.765968 363.345316 
L 363.19162 349.848617 
L 364.617271 369.787288 
L 366.042923 379.748071 
L 367.468574 366.303033 
L 368.894226 382.042055 
L 370.319877 387.273912 
L 371.745529 340.073611 
L 373.17118 373.435766 
L 374.596832 361.778701 
L 376.022483 354.978177 
L 377.448135 375.85018 
L 378.873786 386.881146 
L 380.299438 377.548173 
L 381.725089 366.84702 
L 383.150741 367.551124 
L 384.576392 340.596044 
L 386.002044 367.309922 
L 387.427695 348.35556 
L 388.853347 379.236244 
L 390.278998 358.929782 
L 391.70465 363.287154 
L 391.70465 363.287154 
" clip-path="url(#pcb302cdb3a)" style="fill: none; stroke: #ee771c; stroke-opacity: 0.25; stroke-linecap: square"/>
   </g>
   <g id="line2d_53">
    <path d="M 122.256515 347.921123 
L 123.682167 348.812783 
L 125.107818 349.979276 
L 126.53347 348.786952 
L 127.959121 346.209102 
L 129.384773 349.305245 
L 130.810424 351.308487 
L 132.236076 351.20855 
L 133.661727 353.703878 
L 135.087379 352.556441 
L 136.51303 352.495268 
L 137.938682 350.317369 
L 139.364333 346.68699 
L 140.789985 348.557246 
L 142.215636 349.253378 
L 145.066939 343.351151 
L 146.492591 340.989254 
L 147.918242 339.190538 
L 149.343894 340.749455 
L 150.769545 340.583009 
L 152.195197 343.341811 
L 153.620848 346.63201 
L 155.0465 345.049657 
L 156.472151 347.624427 
L 157.897803 348.382075 
L 159.323454 352.145543 
L 160.749106 351.655441 
L 162.174757 353.561175 
L 165.02606 354.359981 
L 166.451712 354.129078 
L 167.877363 354.106429 
L 169.303015 355.696 
L 170.728666 356.856233 
L 172.154318 357.17804 
L 173.579969 355.654192 
L 175.005621 359.44568 
L 176.431272 360.575258 
L 177.856924 360.255434 
L 179.282575 359.042993 
L 180.708227 358.234436 
L 182.133878 355.996049 
L 183.55953 356.32771 
L 184.985181 352.381134 
L 186.410833 352.365088 
L 187.836484 351.43487 
L 189.262136 350.331089 
L 190.687787 348.617734 
L 192.113439 349.333574 
L 193.53909 350.545365 
L 194.964742 352.360195 
L 196.390393 354.922238 
L 197.816045 353.89506 
L 199.241696 356.484405 
L 200.667348 356.060403 
L 202.092999 356.168414 
L 203.518651 356.477905 
L 204.944303 354.384512 
L 206.369954 353.322266 
L 207.795606 354.447875 
L 209.221257 354.667043 
L 210.646909 354.567894 
L 212.07256 356.176351 
L 213.498212 355.33779 
L 214.923863 354.883099 
L 216.349515 355.015366 
L 217.775166 354.901539 
L 219.200818 356.366439 
L 220.626469 356.176249 
L 222.052121 356.156371 
L 223.477772 355.307374 
L 224.903424 355.276377 
L 226.329075 355.106304 
L 227.754727 355.908805 
L 229.180378 358.474099 
L 230.60603 358.381005 
L 232.031681 357.680254 
L 233.457333 357.352561 
L 234.882984 359.631799 
L 236.308636 360.367995 
L 237.734287 359.25289 
L 239.159939 359.501961 
L 240.58559 361.005042 
L 242.011242 359.704776 
L 243.436893 358.062653 
L 244.862545 359.317074 
L 246.288196 360.951807 
L 247.713848 363.259373 
L 249.139499 359.430798 
L 250.565151 358.388463 
L 251.990802 358.898511 
L 254.842105 353.859582 
L 256.267757 356.765431 
L 257.693408 357.837839 
L 259.11906 358.315692 
L 260.544711 357.893093 
L 261.970363 356.668643 
L 263.396014 360.350307 
L 264.821666 358.037096 
L 266.247317 356.98874 
L 267.672969 358.331259 
L 269.09862 359.885249 
L 270.524272 357.990497 
L 271.949923 358.033914 
L 274.801226 354.167738 
L 276.226878 354.770298 
L 277.652529 354.551506 
L 279.078181 356.489229 
L 280.503832 359.38331 
L 281.929484 361.672641 
L 283.355135 361.436331 
L 284.780787 360.674681 
L 286.206438 360.078656 
L 287.63209 362.126237 
L 289.057741 365.309007 
L 290.483393 365.02285 
L 291.909044 365.400185 
L 293.334696 365.228436 
L 294.760347 363.451274 
L 296.185999 362.357825 
L 299.037302 367.175636 
L 300.462954 367.292097 
L 301.888605 368.165282 
L 303.314257 365.771431 
L 304.739908 366.725461 
L 306.16556 365.813786 
L 307.591211 367.864003 
L 309.016863 368.077458 
L 310.442514 367.618866 
L 311.868166 365.301515 
L 313.293817 365.529374 
L 314.719469 365.15433 
L 316.14512 363.446416 
L 317.570772 363.075444 
L 318.996423 363.80661 
L 320.422075 364.039293 
L 321.847726 362.780254 
L 323.273378 361.809527 
L 324.699029 362.025617 
L 326.124681 363.089984 
L 327.550332 361.905597 
L 330.401635 365.107527 
L 331.827287 366.401258 
L 333.252938 365.602316 
L 334.67859 366.795358 
L 336.104241 368.161759 
L 337.529893 369.273272 
L 338.955544 368.856899 
L 340.381196 365.231104 
L 341.806847 365.184369 
L 343.232499 364.760128 
L 344.65815 363.198542 
L 346.083802 363.040375 
L 347.509453 360.947975 
L 348.935105 360.243118 
L 350.360756 359.164449 
L 351.786408 360.100826 
L 353.212059 361.676404 
L 354.637711 364.466135 
L 356.063362 366.18339 
L 357.489014 366.651835 
L 358.914665 365.813273 
L 360.340317 368.096617 
L 361.765968 369.591453 
L 363.19162 367.606481 
L 364.617271 368.046734 
L 366.042923 368.73404 
L 367.468574 368.527154 
L 368.894226 370.017337 
L 370.319877 370.736289 
L 371.745529 367.339346 
L 373.17118 369.399962 
L 374.596832 367.363637 
L 376.022483 366.526923 
L 377.448135 369.127079 
L 378.873786 370.836465 
L 380.299438 370.616475 
L 381.725089 370.670874 
L 383.150741 369.221781 
L 384.576392 364.553994 
L 386.002044 367.277625 
L 387.427695 364.769605 
L 388.853347 366.515359 
L 390.278998 366.910519 
L 391.70465 365.654217 
L 391.70465 365.654217 
" clip-path="url(#pcb302cdb3a)" style="fill: none; stroke: #ee771c; stroke-width: 2.3; stroke-linecap: square"/>
   </g>
   <g id="line2d_54">
    <path d="M 108 300.909951 
L 401.684211 300.909951 
" clip-path="url(#pcb302cdb3a)" style="fill: none; stroke-dasharray: 1,1.65; stroke-dashoffset: 0; stroke: #999999"/>
   </g>
   <g id="patch_9">
    <path d="M 108 432.288 
L 108 292.151415 
" style="fill: none; stroke: #000000; stroke-width: 0.8; stroke-linejoin: miter; stroke-linecap: square"/>
   </g>
   <g id="patch_10">
    <path d="M 108 432.288 
L 401.684211 432.288 
" style="fill: none; stroke: #000000; stroke-width: 0.8; stroke-linejoin: miter; stroke-linecap: square"/>
   </g>
   <g id="text_42">
    <text style="font-size: 12px; font-family: 'DejaVu Sans', 'Bitstream Vera Sans', 'Computer Modern Sans Serif', 'Lucida Grande', 'Verdana', 'Geneva', 'Lucid', 'Arial', 'Helvetica', 'Avant Garde', sans-serif; text-anchor: start" x="108" y="286.151415" transform="rotate(-0 108 286.151415)">Response length</text>
   </g>
  </g>
  <g id="axes_4">
   <g id="patch_11">
    <path d="M 483.915789 432.288 
L 777.6 432.288 
L 777.6 292.151415 
L 483.915789 292.151415 
z
" style="fill: #ffffff"/>
   </g>
   <g id="matplotlib.axis_7">
    <g id="xtick_16">
     <g id="line2d_55">
      <g>
       <use xlink:href="#m15d156216d" x="483.915789" y="432.288" style="stroke: #000000; stroke-width: 0.8"/>
      </g>
     </g>
     <g id="text_43">
      <text style="font-size: 11px; font-family: 'DejaVu Sans', 'Bitstream Vera Sans', 'Computer Modern Sans Serif', 'Lucida Grande', 'Verdana', 'Geneva', 'Lucid', 'Arial', 'Helvetica', 'Avant Garde', sans-serif; text-anchor: middle" x="483.915789" y="447.646281" transform="rotate(-0 483.915789 447.646281)">0</text>
     </g>
    </g>
    <g id="xtick_17">
     <g id="line2d_56">
      <g>
       <use xlink:href="#m15d156216d" x="555.198365" y="432.288" style="stroke: #000000; stroke-width: 0.8"/>
      </g>
     </g>
     <g id="text_44">
      <text style="font-size: 11px; font-family: 'DejaVu Sans', 'Bitstream Vera Sans', 'Computer Modern Sans Serif', 'Lucida Grande', 'Verdana', 'Geneva', 'Lucid', 'Arial', 'Helvetica', 'Avant Garde', sans-serif; text-anchor: middle" x="555.198365" y="447.646281" transform="rotate(-0 555.198365 447.646281)">50</text>
     </g>
    </g>
    <g id="xtick_18">
     <g id="line2d_57">
      <g>
       <use xlink:href="#m15d156216d" x="626.48094" y="432.288" style="stroke: #000000; stroke-width: 0.8"/>
      </g>
     </g>
     <g id="text_45">
      <text style="font-size: 11px; font-family: 'DejaVu Sans', 'Bitstream Vera Sans', 'Computer Modern Sans Serif', 'Lucida Grande', 'Verdana', 'Geneva', 'Lucid', 'Arial', 'Helvetica', 'Avant Garde', sans-serif; text-anchor: middle" x="626.48094" y="447.646281" transform="rotate(-0 626.48094 447.646281)">100</text>
     </g>
    </g>
    <g id="xtick_19">
     <g id="line2d_58">
      <g>
       <use xlink:href="#m15d156216d" x="697.763516" y="432.288" style="stroke: #000000; stroke-width: 0.8"/>
      </g>
     </g>
     <g id="text_46">
      <text style="font-size: 11px; font-family: 'DejaVu Sans', 'Bitstream Vera Sans', 'Computer Modern Sans Serif', 'Lucida Grande', 'Verdana', 'Geneva', 'Lucid', 'Arial', 'Helvetica', 'Avant Garde', sans-serif; text-anchor: middle" x="697.763516" y="447.646281" transform="rotate(-0 697.763516 447.646281)">150</text>
     </g>
    </g>
    <g id="xtick_20">
     <g id="line2d_59">
      <g>
       <use xlink:href="#m15d156216d" x="769.046091" y="432.288" style="stroke: #000000; stroke-width: 0.8"/>
      </g>
     </g>
     <g id="text_47">
      <text style="font-size: 11px; font-family: 'DejaVu Sans', 'Bitstream Vera Sans', 'Computer Modern Sans Serif', 'Lucida Grande', 'Verdana', 'Geneva', 'Lucid', 'Arial', 'Helvetica', 'Avant Garde', sans-serif; text-anchor: middle" x="769.046091" y="447.646281" transform="rotate(-0 769.046091 447.646281)">200</text>
     </g>
    </g>
    <g id="text_48">
     <text style="font-size: 11px; font-family: 'DejaVu Sans', 'Bitstream Vera Sans', 'Computer Modern Sans Serif', 'Lucida Grande', 'Verdana', 'Geneva', 'Lucid', 'Arial', 'Helvetica', 'Avant Garde', sans-serif; text-anchor: middle" x="630.757895" y="462.292219" transform="rotate(-0 630.757895 462.292219)">Optimizer step</text>
    </g>
   </g>
   <g id="matplotlib.axis_8">
    <g id="ytick_17">
     <g id="line2d_60">
      <path d="M 483.915789 432.288 
L 777.6 432.288 
" clip-path="url(#pf1a0a3969c)" style="fill: none; stroke: #dddddd; stroke-width: 0.7; stroke-linecap: square"/>
     </g>
     <g id="line2d_61">
      <g>
       <use xlink:href="#m2126f41b56" x="483.915789" y="432.288" style="stroke: #000000; stroke-width: 0.8"/>
      </g>
     </g>
     <g id="text_49">
      <text style="font-size: 11px; font-family: 'DejaVu Sans', 'Bitstream Vera Sans', 'Computer Modern Sans Serif', 'Lucida Grande', 'Verdana', 'Geneva', 'Lucid', 'Arial', 'Helvetica', 'Avant Garde', sans-serif; text-anchor: end" x="476.915789" y="436.467141" transform="rotate(-0 476.915789 436.467141)">0%</text>
     </g>
    </g>
    <g id="ytick_18">
     <g id="line2d_62">
      <path d="M 483.915789 404.260683 
L 777.6 404.260683 
" clip-path="url(#pf1a0a3969c)" style="fill: none; stroke: #dddddd; stroke-width: 0.7; stroke-linecap: square"/>
     </g>
     <g id="line2d_63">
      <g>
       <use xlink:href="#m2126f41b56" x="483.915789" y="404.260683" style="stroke: #000000; stroke-width: 0.8"/>
      </g>
     </g>
     <g id="text_50">
      <text style="font-size: 11px; font-family: 'DejaVu Sans', 'Bitstream Vera Sans', 'Computer Modern Sans Serif', 'Lucida Grande', 'Verdana', 'Geneva', 'Lucid', 'Arial', 'Helvetica', 'Avant Garde', sans-serif; text-anchor: end" x="476.915789" y="408.439824" transform="rotate(-0 476.915789 408.439824)">20%</text>
     </g>
    </g>
    <g id="ytick_19">
     <g id="line2d_64">
      <path d="M 483.915789 376.233366 
L 777.6 376.233366 
" clip-path="url(#pf1a0a3969c)" style="fill: none; stroke: #dddddd; stroke-width: 0.7; stroke-linecap: square"/>
     </g>
     <g id="line2d_65">
      <g>
       <use xlink:href="#m2126f41b56" x="483.915789" y="376.233366" style="stroke: #000000; stroke-width: 0.8"/>
      </g>
     </g>
     <g id="text_51">
      <text style="font-size: 11px; font-family: 'DejaVu Sans', 'Bitstream Vera Sans', 'Computer Modern Sans Serif', 'Lucida Grande', 'Verdana', 'Geneva', 'Lucid', 'Arial', 'Helvetica', 'Avant Garde', sans-serif; text-anchor: end" x="476.915789" y="380.412506" transform="rotate(-0 476.915789 380.412506)">40%</text>
     </g>
    </g>
    <g id="ytick_20">
     <g id="line2d_66">
      <path d="M 483.915789 348.206049 
L 777.6 348.206049 
" clip-path="url(#pf1a0a3969c)" style="fill: none; stroke: #dddddd; stroke-width: 0.7; stroke-linecap: square"/>
     </g>
     <g id="line2d_67">
      <g>
       <use xlink:href="#m2126f41b56" x="483.915789" y="348.206049" style="stroke: #000000; stroke-width: 0.8"/>
      </g>
     </g>
     <g id="text_52">
      <text style="font-size: 11px; font-family: 'DejaVu Sans', 'Bitstream Vera Sans', 'Computer Modern Sans Serif', 'Lucida Grande', 'Verdana', 'Geneva', 'Lucid', 'Arial', 'Helvetica', 'Avant Garde', sans-serif; text-anchor: end" x="476.915789" y="352.385189" transform="rotate(-0 476.915789 352.385189)">60%</text>
     </g>
    </g>
    <g id="ytick_21">
     <g id="line2d_68">
      <path d="M 483.915789 320.178732 
L 777.6 320.178732 
" clip-path="url(#pf1a0a3969c)" style="fill: none; stroke: #dddddd; stroke-width: 0.7; stroke-linecap: square"/>
     </g>
     <g id="line2d_69">
      <g>
       <use xlink:href="#m2126f41b56" x="483.915789" y="320.178732" style="stroke: #000000; stroke-width: 0.8"/>
      </g>
     </g>
     <g id="text_53">
      <text style="font-size: 11px; font-family: 'DejaVu Sans', 'Bitstream Vera Sans', 'Computer Modern Sans Serif', 'Lucida Grande', 'Verdana', 'Geneva', 'Lucid', 'Arial', 'Helvetica', 'Avant Garde', sans-serif; text-anchor: end" x="476.915789" y="324.357872" transform="rotate(-0 476.915789 324.357872)">80%</text>
     </g>
    </g>
    <g id="ytick_22">
     <g id="line2d_70">
      <path d="M 483.915789 292.151415 
L 777.6 292.151415 
" clip-path="url(#pf1a0a3969c)" style="fill: none; stroke: #dddddd; stroke-width: 0.7; stroke-linecap: square"/>
     </g>
     <g id="line2d_71">
      <g>
       <use xlink:href="#m2126f41b56" x="483.915789" y="292.151415" style="stroke: #000000; stroke-width: 0.8"/>
      </g>
     </g>
     <g id="text_54">
      <text style="font-size: 11px; font-family: 'DejaVu Sans', 'Bitstream Vera Sans', 'Computer Modern Sans Serif', 'Lucida Grande', 'Verdana', 'Geneva', 'Lucid', 'Arial', 'Helvetica', 'Avant Garde', sans-serif; text-anchor: end" x="476.915789" y="296.330555" transform="rotate(-0 476.915789 296.330555)">100%</text>
     </g>
    </g>
    <g id="text_55">
     <text style="font-size: 11px; font-family: 'DejaVu Sans', 'Bitstream Vera Sans', 'Computer Modern Sans Serif', 'Lucida Grande', 'Verdana', 'Geneva', 'Lucid', 'Arial', 'Helvetica', 'Avant Garde', sans-serif; text-anchor: middle" x="439.180164" y="362.219707" transform="rotate(-90 439.180164 362.219707)">Share of rollouts (%)</text>
    </g>
   </g>
   <g id="line2d_72">
    <path d="M 485.341441 383.021232 
L 486.767092 403.822756 
L 488.192744 372.073061 
L 489.618396 404.917573 
L 491.044047 364.409341 
L 492.469699 386.305683 
L 493.89535 384.116049 
L 495.321002 390.684951 
L 496.746653 384.116049 
L 498.172305 378.641963 
L 499.597956 392.874585 
L 501.023608 383.021232 
L 502.449259 362.219707 
L 503.874911 350.17672 
L 505.300562 399.443488 
L 506.726214 401.633122 
L 508.151865 393.969402 
L 509.577517 391.779768 
L 511.003168 358.935256 
L 512.42882 377.547146 
L 513.854471 367.693793 
L 515.280123 349.081902 
L 516.705774 390.684951 
L 518.131426 356.745622 
L 519.557077 363.314524 
L 520.982729 366.598976 
L 523.834032 357.840439 
L 525.259683 381.926415 
L 526.685335 389.590134 
L 528.110986 409.296841 
L 529.536638 392.874585 
L 530.962289 352.366354 
L 532.387941 398.348671 
L 533.813592 397.253854 
L 535.239244 408.202024 
L 536.664895 361.12489 
L 538.090547 397.253854 
L 539.516198 401.633122 
L 540.94185 375.357512 
L 542.367501 385.210866 
L 543.793153 388.495317 
L 545.218804 393.969402 
L 546.644456 400.538305 
L 548.070107 386.305683 
L 549.495759 389.590134 
L 552.347062 413.67611 
L 553.772713 388.495317 
L 555.198365 366.598976 
L 556.624016 397.253854 
L 558.049668 358.935256 
L 559.475319 385.210866 
L 560.900971 362.219707 
L 562.326622 396.159037 
L 563.752274 381.926415 
L 565.177925 391.779768 
L 566.603577 396.159037 
L 569.45488 383.021232 
L 570.880531 402.727939 
L 572.306183 392.874585 
L 573.731834 390.684951 
L 575.157486 396.159037 
L 576.583137 380.831598 
L 578.008789 383.021232 
L 579.43444 388.495317 
L 580.860092 362.219707 
L 582.285743 383.021232 
L 583.711395 401.633122 
L 585.137046 410.391659 
L 586.562698 390.684951 
L 587.98835 397.253854 
L 589.414001 383.021232 
L 590.839653 373.167878 
L 593.690956 402.727939 
L 595.116607 369.883427 
L 596.542259 383.021232 
L 597.96791 389.590134 
L 599.393562 403.822756 
L 600.819213 404.917573 
L 602.244865 403.822756 
L 603.670516 393.969402 
L 605.096168 419.150195 
L 606.521819 377.547146 
L 609.373122 395.06422 
L 610.798774 397.253854 
L 612.224425 392.874585 
L 613.650077 387.4005 
L 615.075728 389.590134 
L 616.50138 410.391659 
L 617.927031 393.969402 
L 619.352683 390.684951 
L 620.778334 395.06422 
L 622.203986 413.67611 
L 623.629637 409.296841 
L 625.055289 369.883427 
L 626.48094 398.348671 
L 627.906592 401.633122 
L 629.332243 365.504159 
L 630.757895 388.495317 
L 632.183546 409.296841 
L 633.609198 407.107207 
L 635.034849 408.202024 
L 636.460501 392.874585 
L 637.886152 397.253854 
L 639.311804 399.443488 
L 640.737455 369.883427 
L 643.588758 383.021232 
L 645.01441 397.253854 
L 646.440061 390.684951 
L 647.865713 399.443488 
L 650.717016 375.357512 
L 652.142667 398.348671 
L 653.568319 411.486476 
L 654.99397 386.305683 
L 656.419622 407.107207 
L 657.845273 413.67611 
L 659.270925 408.202024 
L 660.696576 372.073061 
L 662.122228 407.107207 
L 664.973531 415.865744 
L 666.399182 393.969402 
L 667.824834 410.391659 
L 669.250485 392.874585 
L 670.676137 392.874585 
L 672.101788 389.590134 
L 673.52744 414.770927 
L 674.953091 404.917573 
L 676.378743 402.727939 
L 677.804394 416.960561 
L 679.230046 379.73678 
L 680.655697 421.339829 
L 682.081349 395.06422 
L 683.507001 402.727939 
L 684.932652 400.538305 
L 686.358304 389.590134 
L 687.783955 403.822756 
L 689.209607 421.339829 
L 690.635258 397.253854 
L 692.06091 404.917573 
L 693.486561 376.452329 
L 694.912213 421.339829 
L 696.337864 402.727939 
L 697.763516 397.253854 
L 699.189167 384.116049 
L 700.614819 387.4005 
L 702.04047 404.917573 
L 703.466122 392.874585 
L 704.891773 408.202024 
L 706.317425 410.391659 
L 707.743076 396.159037 
L 709.168728 408.202024 
L 710.594379 419.150195 
L 712.020031 406.01239 
L 713.445682 401.633122 
L 714.871334 384.116049 
L 716.296985 376.452329 
L 717.722637 384.116049 
L 719.148288 398.348671 
L 720.57394 402.727939 
L 721.999591 410.391659 
L 723.425243 387.4005 
L 724.850894 414.770927 
L 726.276546 402.727939 
L 727.702197 424.62428 
L 729.127849 401.633122 
L 730.5535 407.107207 
L 731.979152 415.865744 
L 733.404803 411.486476 
L 734.830455 391.779768 
L 736.256106 410.391659 
L 737.681758 391.779768 
L 739.107409 379.73678 
L 740.533061 406.01239 
L 741.958712 413.67611 
L 743.384364 398.348671 
L 744.810015 416.960561 
L 746.235667 418.055378 
L 747.661318 378.641963 
L 749.08697 412.581293 
L 750.512621 392.874585 
L 751.938273 399.443488 
L 753.363924 409.296841 
L 754.789576 427.908732 
L 756.215227 416.960561 
L 757.640879 396.159037 
L 759.06653 402.727939 
L 760.492182 376.452329 
L 761.917833 418.055378 
L 763.343485 365.504159 
L 764.769136 416.960561 
L 766.194788 385.210866 
L 767.620439 403.822756 
L 767.620439 403.822756 
" clip-path="url(#pf1a0a3969c)" style="fill: none; stroke: #ee771c; stroke-opacity: 0.25; stroke-linecap: square"/>
   </g>
   <g id="line2d_73">
    <path d="M 498.172305 385.210866 
L 499.597956 386.196201 
L 501.023608 384.116049 
L 502.449259 383.130713 
L 503.874911 377.656628 
L 505.300562 381.160043 
L 506.726214 382.692787 
L 508.151865 383.678122 
L 509.577517 383.787604 
L 511.003168 381.269524 
L 512.42882 381.160043 
L 513.854471 378.641963 
L 515.280123 375.24803 
L 516.705774 378.094555 
L 518.131426 378.751445 
L 520.982729 371.635134 
L 523.834032 365.066232 
L 525.259683 367.365348 
L 526.685335 368.569646 
L 529.536638 377.10922 
L 530.962289 373.27736 
L 532.387941 377.437665 
L 533.813592 380.831598 
L 535.239244 384.991902 
L 536.664895 384.882421 
L 538.090547 388.823762 
L 539.516198 390.794433 
L 540.94185 389.371171 
L 542.367501 386.962573 
L 543.793153 386.524646 
L 545.218804 390.684951 
L 546.644456 390.903915 
L 548.070107 389.809098 
L 549.495759 387.947909 
L 550.92141 391.998732 
L 552.347062 393.640957 
L 553.772713 392.327177 
L 555.198365 391.451323 
L 556.624016 392.655622 
L 558.049668 389.699616 
L 559.475319 388.823762 
L 560.900971 384.991902 
L 562.326622 385.977238 
L 563.752274 385.210866 
L 565.177925 384.22553 
L 566.603577 382.473823 
L 568.029228 382.583305 
L 569.45488 384.22553 
L 570.880531 384.772939 
L 572.306183 388.166872 
L 573.731834 388.71428 
L 575.157486 392.108213 
L 576.583137 390.57547 
L 578.008789 390.684951 
L 579.43444 390.356506 
L 580.860092 386.962573 
L 582.285743 386.305683 
L 583.711395 388.166872 
L 585.137046 388.933244 
L 586.562698 388.71428 
L 587.98835 389.371171 
L 589.414001 388.05739 
L 590.839653 387.291018 
L 592.265304 387.728945 
L 593.690956 389.152207 
L 595.116607 389.918579 
L 596.542259 389.918579 
L 597.96791 388.71428 
L 599.393562 388.05739 
L 600.819213 389.480652 
L 602.244865 390.137543 
L 603.670516 391.23236 
L 605.096168 395.830591 
L 606.521819 394.845256 
L 607.947471 393.20303 
L 609.373122 395.72111 
L 610.798774 397.144372 
L 612.224425 397.472817 
L 615.075728 394.297848 
L 616.50138 394.954738 
L 617.927031 394.954738 
L 619.352683 392.108213 
L 620.778334 393.859921 
L 622.203986 396.596963 
L 623.629637 398.020226 
L 625.055289 395.283183 
L 626.48094 395.830591 
L 627.906592 397.253854 
L 629.332243 394.845256 
L 630.757895 392.655622 
L 635.034849 397.144372 
L 636.460501 395.06422 
L 637.886152 393.859921 
L 639.311804 396.815927 
L 640.737455 393.969402 
L 642.163107 391.451323 
L 643.588758 393.20303 
L 645.01441 394.078884 
L 646.440061 392.217695 
L 647.865713 391.451323 
L 649.291364 389.371171 
L 650.717016 387.619463 
L 652.142667 387.728945 
L 653.568319 388.933244 
L 654.99397 390.57547 
L 657.845273 396.706445 
L 659.270925 397.801262 
L 660.696576 395.940073 
L 662.122228 396.706445 
L 663.547879 399.115043 
L 664.973531 403.165866 
L 666.399182 402.727939 
L 667.824834 402.618457 
L 669.250485 403.275348 
L 670.676137 401.852085 
L 672.101788 399.443488 
L 673.52744 400.100378 
L 674.953091 403.384829 
L 676.378743 402.946902 
L 677.804394 403.494311 
L 679.230046 399.881415 
L 680.655697 402.618457 
L 682.081349 401.085713 
L 683.507001 402.071049 
L 684.932652 402.837421 
L 686.358304 402.837421 
L 687.783955 401.742604 
L 689.209607 403.384829 
L 690.635258 402.837421 
L 692.06091 401.633122 
L 693.486561 401.304677 
L 694.912213 401.304677 
L 696.337864 402.071049 
L 697.763516 401.52364 
L 699.189167 399.881415 
L 700.614819 399.662451 
L 702.04047 399.771933 
L 703.466122 396.925409 
L 704.891773 398.020226 
L 706.317425 398.567634 
L 707.743076 400.538305 
L 709.168728 399.224524 
L 710.594379 400.86675 
L 712.020031 401.742604 
L 713.445682 403.494311 
L 714.871334 403.165866 
L 716.296985 400.319341 
L 720.57394 397.69178 
L 721.999591 399.115043 
L 723.425243 397.03489 
L 726.276546 396.268518 
L 727.702197 398.567634 
L 729.127849 400.319341 
L 731.979152 406.559799 
L 733.404803 407.873579 
L 734.830455 406.778762 
L 736.256106 406.778762 
L 737.681758 407.216689 
L 739.107409 403.713274 
L 740.533061 404.04172 
L 741.958712 402.946902 
L 743.384364 402.618457 
L 744.810015 403.603793 
L 746.235667 403.822756 
L 747.661318 400.538305 
L 749.08697 402.618457 
L 750.512621 400.86675 
L 751.938273 401.633122 
L 753.363924 404.589128 
L 754.789576 406.778762 
L 756.215227 407.107207 
L 757.640879 406.888244 
L 759.06653 405.464982 
L 760.492182 401.304677 
L 761.917833 405.246018 
L 763.343485 400.538305 
L 764.769136 402.946902 
L 766.194788 401.52364 
L 767.620439 400.976232 
L 767.620439 400.976232 
" clip-path="url(#pf1a0a3969c)" style="fill: none; stroke: #ee771c; stroke-width: 2.3; stroke-linecap: square"/>
   </g>
   <g id="patch_12">
    <path d="M 483.915789 432.288 
L 483.915789 292.151415 
" style="fill: none; stroke: #000000; stroke-width: 0.8; stroke-linejoin: miter; stroke-linecap: square"/>
   </g>
   <g id="patch_13">
    <path d="M 483.915789 432.288 
L 777.6 432.288 
" style="fill: none; stroke: #000000; stroke-width: 0.8; stroke-linejoin: miter; stroke-linecap: square"/>
   </g>
   <g id="text_56">
    <text style="font-size: 12px; font-family: 'DejaVu Sans', 'Bitstream Vera Sans', 'Computer Modern Sans Serif', 'Lucida Grande', 'Verdana', 'Geneva', 'Lucid', 'Arial', 'Helvetica', 'Avant Garde', sans-serif; text-anchor: start" x="483.915789" y="286.151415" transform="rotate(-0 483.915789 286.151415)">Responses reaching the token limit</text>
   </g>
  </g>
  <g id="text_57">
   <text style="font-size: 17px; font-family: 'DejaVu Sans', 'Bitstream Vera Sans', 'Computer Modern Sans Serif', 'Lucida Grande', 'Verdana', 'Geneva', 'Lucid', 'Arial', 'Helvetica', 'Avant Garde', sans-serif; text-anchor: start" x="64.8" y="23.861344" transform="rotate(-0 64.8 23.861344)">Figure 2 reproduction — training progress</text>
  </g>
  <g id="text_58">
   <text style="font-size: 11px; font-family: 'DejaVu Sans', 'Bitstream Vera Sans', 'Computer Modern Sans Serif', 'Lucida Grande', 'Verdana', 'Geneva', 'Lucid', 'Arial', 'Helvetica', 'Avant Garde', sans-serif; text-anchor: start; fill: #555555" x="64.8" y="46.512" transform="rotate(-0 64.8 46.512)">Snapshot: Oct 08, 2026 · 09:13 AM PDT  |  Target: 200 optimizer steps</text>
  </g>
  <g id="text_59">
   <text style="font-size: 10px; font-family: 'DejaVu Sans', 'Bitstream Vera Sans', 'Computer Modern Sans Serif', 'Lucida Grande', 'Verdana', 'Geneva', 'Lucid', 'Arial', 'Helvetica', 'Avant Garde', sans-serif; fill: #555555" transform="translate(64.8 495.442031)">Faint lines: per-step values. Thick lines: trailing 10-step means. Missing metrics remain gaps, without interpolation.</text>
   <text style="font-size: 10px; font-family: 'DejaVu Sans', 'Bitstream Vera Sans', 'Computer Modern Sans Serif', 'Lucida Grande', 'Verdana', 'Geneva', 'Lucid', 'Arial', 'Helvetica', 'Avant Garde', sans-serif; fill: #555555" transform="translate(64.8 508.919375)">Reward = binary correctness on sampled training batches. Validation uses solo GRPO / tandem team rollouts;</text>
   <text style="font-size: 10px; font-family: 'DejaVu Sans', 'Bitstream Vera Sans', 'Computer Modern Sans Serif', 'Lucida Grande', 'Verdana', 'Geneva', 'Lucid', 'Arial', 'Helvetica', 'Avant Garde', sans-serif; fill: #555555" transform="translate(64.8 522.396719)">these are monitoring curves, not a matched solo-capability comparison or the final Figure 2 benchmark.</text>
  </g>
 </g>
 <defs>
  <clipPath id="p78be163c69">
   <rect x="108" y="87.552" width="293.684211" height="140.136585"/>
  </clipPath>
  <clipPath id="p607c90f0b9">
   <rect x="483.915789" y="87.552" width="293.684211" height="140.136585"/>
  </clipPath>
  <clipPath id="pcb302cdb3a">
   <rect x="108" y="292.151415" width="293.684211" height="140.136585"/>
  </clipPath>
  <clipPath id="pf1a0a3969c">
   <rect x="483.915789" y="292.151415" width="293.684211" height="140.136585"/>
  </clipPath>
 </defs>
</svg>
